_________________________  Visit us at _________________________
  
http://p2pdl.com  ____________________________  http://p2pdl.com


On The Road 2012 BRRip 720p x264 AAC - PRiSTiNE

Genre: Adventure | Drama
Plot: Young writer Sal Paradise has his life shaken by the arrival of 
free-spirited Dean Moriarty and his girl, Marylou. As they travel across 
the country, they encounter a mix of people who each impact their journey 
indelibly.
Director: Walter Salles
Stars: Sam Riley, Garrett Hedlund, Kristen Stewart
Rated: Rated R for strong sexual content, drug use and language

Info: 
http://www.imdb.com/title/tt0337692/

General
Complete name                  : On The Road 2012 BRRip 720p x264 AAC - PRiSTiNE.mp4
Format                         : MPEG-4
Format profile                 : Base Media
Codec ID                       : isom
File size                      : 722 MiB
Duration                       : 2h 19mn
Overall bit rate mode          : Variable
Overall bit rate               : 722 Kbps

Source                         : 720p.bluray.x264-psychd (Thanks)

Video
ID                             : 1
Format                         : AVC
Format/Info                    : Advanced Video Codec
Format profile                 : High@L4.1
Format settings, CABAC         : Yes
Format settings, ReFrames      : 8 frames
Codec ID/Info                  : Advanced Video Coding
Duration                       : 2h 19mn
Bit rate                       : 655 Kbps
Width                          : 1 280 pixels
Height                         : 544 pixels
Display aspect ratio           : 2.35:1
Frame rate mode                : Constant
Frame rate                     : 24.000 fps
Scan type                      : Progressive
Bits/(Pixel*Frame)             : 0.039
Stream size                    : 654 MiB (91%)

Audio
Format                         : AAC
Format/Info                    : Advanced Audio Codec
Duration                       : 2h 19mn
Bit rate mode                  : Variable
Bit rate                       : 64.0 Kbps
Channel(s)                     : 2 channels
Channel positions              : Front: L R
Sampling rate                  : 48.0 KHz / 24.0 KHz
Stream size                    : 63.9 MiB (9%)
Language                       : English

Subtitle                       : Yes (English)

Screens: 
http://imgr.us/images/1773foq172cwvkh4wsy0.jpg 
http://imgr.us/images/j1hkvku7z0htx2nyoq2.jpg 
http://imgr.us/images/yea087e8yfq9ki343.jpg 
http://imgr.us/images/j9huwicw1vggna7bgrpb.jpg

Thumbs: 
http://imgr.us/images/9kwsdw8irt4znlzsigoy.jpg

----------------------------------------------------------------------------------------------------

Recommend to you to use latest version of VLC player. Install K-Lite Codec Pack or shark007 codecs
in case of any kind of problem in playback (For non-VLC Media Player users). Alternatively, install
Core AVC codecs, the fastest decoder that there is coupled with Community Center Codec Pack and play
on Windows Media Player Classic. Check sample to be sure.
Enjoy!

Greets to: VYTO, a2zRG, MusiK_KinG, Sheychi, TorDigger, StyLishSaLH and staff members at
ExtraTorrent, TPB, H33T, KAT, 1337x, PublicHD, Ahashare, BTScene,LimeTorrents, TorrentMafia,
P2PDL, and all others.

Encoder Notes: Encoder Notes: Looking For Early Access To Anything You Can Provide DVDScr, R5, DVDR, BluRay, Direct
Audio, Music Releases and Seedboxes. We require dedicated servers, so as to do more and fast releases of movies.
If You Got anything to offer contact us at "prg@hush.com".